<?xml version="1.0" encoding="utf-8"?>
<!-- Generator: Adobe Illustrator 25.3.1, SVG Export Plug-In . SVG Version: 6.00 Build 0)  -->
<svg version="1.1" id="Layer_1" xmlns="http://www.w3.org/2000/svg" xmlns:xlink="http://www.w3.org/1999/xlink" x="0px" y="0px"
	 viewBox="0 0 800 800" style="enable-background:new 0 0 800 800;" xml:space="preserve">
<style type="text/css">
	.st0{fill:#A21016;}
	.st1{fill:#FFEDE6;}
</style>
<circle class="st0" cx="400" cy="400" r="387"/>
<g>
	<path class="st1" d="M214.1,308.8c0,14-5.5,26.8-16.6,38.5c-11,11.7-24,17.6-38.9,17.6c-15.8,0-29.2-6.3-40.2-18.9
		s-16.6-28.6-16.6-48c0-26.1,9.3-52.1,28-78c12.8-17.7,27.7-32.3,44.8-43.8c12.7-8.5,29.9-3.5,36.3,10.4l2.5,5.5
		c4.5,9.9,2.1,21.7-6.1,28.9c-4.9,4.3-9.1,8.5-12.6,12.5c-0.1,0.1-0.1,0.1-0.2,0.2c-8.5,9.7-7.9,24.5,1.3,33.6c2.8,2.7,5.5,6,8,9.8
		C210.7,286.9,214.1,297.5,214.1,308.8z"/>
</g>
<g>
	<path class="st1" d="M353.1,308.8c0,14-5.5,26.8-16.6,38.5c-11,11.7-24,17.6-38.9,17.6c-15.8,0-29.2-6.3-40.2-18.9
		s-16.6-28.6-16.6-48c0-26.1,9.3-52.1,28-78c12.8-17.7,27.7-32.3,44.8-43.8c12.7-8.5,29.9-3.5,36.3,10.4l2.5,5.5
		c4.5,9.9,2.1,21.7-6.1,28.9c-4.9,4.3-9.1,8.5-12.6,12.5c-0.1,0.1-0.1,0.1-0.2,0.2c-8.5,9.7-7.9,24.5,1.3,33.6c2.8,2.7,5.5,6,8,9.8
		C349.7,286.9,353.1,297.5,353.1,308.8z"/>
</g>
<g>
	<path class="st1" d="M588.6,504c0-14,5.5-26.8,16.6-38.5c11-11.7,24-17.6,38.9-17.6c15.8,0,29.2,6.3,40.2,18.9s16.6,28.6,16.6,48
		c0,26.1-9.3,52.1-28,78C660,610.6,645,625.2,628,636.7c-12.7,8.5-29.9,3.5-36.3-10.4l-2.5-5.5c-4.5-9.9-2.1-21.7,6.1-28.9
		c4.9-4.3,9.1-8.5,12.6-12.5c0.1-0.1,0.1-0.1,0.2-0.2c8.5-9.7,7.9-24.5-1.3-33.6c-2.8-2.7-5.5-6-8-9.8
		C592,525.9,588.6,515.3,588.6,504z"/>
</g>
<g>
	<path class="st1" d="M446.6,504c0-14,5.5-26.8,16.6-38.5c11-11.7,24-17.6,38.9-17.6c15.8,0,29.2,6.3,40.2,18.9s16.6,28.6,16.6,48
		c0,26.1-9.3,52.1-28,78C518,610.6,503,625.2,486,636.7c-12.7,8.5-29.9,3.5-36.3-10.4l-2.5-5.5c-4.5-9.9-2.1-21.7,6.1-28.9
		c4.9-4.3,9.1-8.5,12.6-12.5c0.1-0.1,0.1-0.1,0.2-0.2c8.5-9.7,7.9-24.5-1.3-33.6c-2.8-2.7-5.5-6-8-9.8
		C450,525.9,446.6,515.3,446.6,504z"/>
</g>
</svg>
